<?xml version="1.0" encoding="utf-8"?>
<!-- Generator: Adobe Illustrator 22.1.0, SVG Export Plug-In . SVG Version: 6.00 Build 0)  -->
<svg version="1.1"
	 id="svg2816" inkscape:version="0.47 r22583" sodipodi:docname="FleurDeLis_4K.ai" xmlns:cc="http://creativecommons.org/ns#" xmlns:dc="http://purl.org/dc/elements/1.1/" xmlns:inkscape="http://www.inkscape.org/namespaces/inkscape" xmlns:rdf="http://www.w3.org/1999/02/22-rdf-syntax-ns#" xmlns:sodipodi="http://sodipodi.sourceforge.net/DTD/sodipodi-0.dtd" xmlns:svg="http://www.w3.org/2000/svg"
	 xmlns="http://www.w3.org/2000/svg" xmlns:xlink="http://www.w3.org/1999/xlink" x="0px" y="0px" viewBox="0 0 322.3 322.3"
	 style="enable-background:new 0 0 322.3 322.3;" xml:space="preserve">
<style type="text/css">
	.st0{fill:#FFFFFF;}
	.st1{fill:#CE1126;}
	.st2{fill:#003F87;}
	.st3{fill:none;stroke:#FFFFFF;stroke-width:0.638;}
</style>
<defs>
	
	
		<inkscape:perspective  id="perspective2824" inkscape:persp3d-origin="0.5 : 0.33333333 : 1" inkscape:vp_x="0 : 0.5 : 1" inkscape:vp_y="0 : 1000 : 0" inkscape:vp_z="1 : 0.5 : 1" sodipodi:type="inkscape:persp3d">
		</inkscape:perspective>
</defs>
<sodipodi:namedview  bordercolor="#666666" borderopacity="1" gridtolerance="10" guidetolerance="10" id="namedview2818" inkscape:current-layer="g2826" inkscape:cx="181.98143" inkscape:cy="192.72832" inkscape:pageopacity="0" inkscape:pageshadow="2" inkscape:window-height="667" inkscape:window-maximized="0" inkscape:window-width="793" inkscape:window-x="0" inkscape:window-y="0" inkscape:zoom="0.95353535" objecttolerance="10" pagecolor="#ffffff" showgrid="false">
	</sodipodi:namedview>
<g id="g2826" transform="matrix(1.25,0,0,-1.25,-200.51857,624.56673)" inkscape:groupmode="layer" inkscape:label="FleurDeLis_4K">
	<g id="g3025" transform="matrix(0.73310732,0,0,0.73310732,42.813551,64.539278)">
		<path id="path2836" class="st0" d="M286,471.2c0,0,37.2,106.8,49.6,106.4c13.9-0.4,49.6-104.8,49.6-104.8s63.6,25.5,89.2-6.2
			c45.5-56.4-31.2-107.8-26.8-98.6c5.9,12.3-29.6,40.4-38.8,31.6c-2.1-2-38.8-22-38.8-22l9.6-36.8c0,0,0.2,1.1,5.3-2.6
			c5.1-3.8,20.3-23,39.5,11.4c0,0,12.4-70-55.2-60.8c-7.8,1.1-33.6-40.8-33.6-40.8l-28.8,43.2c0,0-56.8-17.6-60.8,51.2
			c0,0,26.3-24.7,42.2-4c1.8,2.4,1,4.8,1,4.8l12.4,35.6L256,403.9l-1.9-4.4c0,0-11.5,5.4-28.1-30.8c-6.4-14-53.1,55.6-35.6,84.8
			c2.4,4,6.8,15.2,13.2,16c13.5,1.7,37.6,28,78.4,3.2L286,471.2L286,471.2z"/>
		<path id="path2838" class="st1" d="M379.7,509c3.8-10.1,8.2-19.9,9.6-31c8.6,2.9,17.8,7.2,27.6,7.9c22.3,3.6,43-3.4,57.6-19.4
			l-13.2-0.2c-18.5,13.9-49.5,14.2-68.7,1.9l-10.3-7c-1.4,42.3-28.8,74.2-45.6,110.4l-0.7-0.2c-16.8-35.8-43.5-67.5-44.9-109.5
			c-18.7,15.1-48.5,20.9-71.3,9.4l-8.4-4.8c-4.3,0-8.6-0.2-13,0.2c17,19.4,45.9,25,70.6,17l14.9-5.5c7.4,42.5,38.4,75.4,52.3,115.2
			C347.3,564.5,366.9,538.1,379.7,509"/>
		<path id="path2840" class="st1" d="M330.5,471.3c2.2,31.7,3.8,61,6.2,92.9l6.2-92.7L330.5,471.3L330.5,471.3z"/>
		<path id="path2842" class="st1" d="M196.5,448c-8.2-18.5-3.4-42.3,9.1-57.6c4.8-5.8,10.6-11.5,17-14.6c2.9,12,9.6,24.7,21.8,30.2
			l9.6-6.5c-9.8-2.9-19.2-12.7-21.4-23.1c-1.7-5.5-0.7-12.2,0.2-17.8c-23,8.9-43.9,32.2-48.3,56.4c-2.6,13.7-1.2,28.6,5.8,39.9
			L196.5,448L196.5,448z"/>
		<path id="path2844" class="st1" d="M482.9,454.3c10.3-19.7,7-46.6-5-64.3c-8.9-14.2-23.3-25.9-37.9-31.5
			c2.6,12.7,0.2,26.6-10.3,35.1c-3.4,2.2-6.5,4.6-10.3,5.3c2.2,2.4,6,4.1,8.9,6.5c12.5-4.8,19.4-17.8,21.8-29.8
			c9.4,3.6,17,13.9,22.6,22.3c8.6,14.6,10.3,34.1,3.8,49.9C478.3,450.2,480.3,453.1,482.9,454.3"/>
		<path id="path2846" class="st1" d="M220,415.4c4.1-1.2,8.4-0.7,13-0.7c-2.2-2.9-6.5-4.8-9.6-7.4c0.2-4.3,1.9-8.4,3.4-12.5
			c-3.4,1.7-7,4.3-10.3,7c-3.8-1.7-7.2-4.8-11-6.7l3.6,12.2l-9.6,6.7c3.8,1.2,7.9,0.2,12,1c2.2,3.8,3.1,7.9,4.8,11.8L220,415.4
			L220,415.4z"/>
		<path id="path2848" class="st1" d="M465.4,414.4c2.6-0.2,5.8,0.2,8.2-0.5l-9.6-7.7l3.6-11.5l-10.6,6.7l-10.8-7.2l3.8,12l-10.3,7.7
			l12.7,0.7l4.3,11.8C459.6,422.8,458.2,413.2,465.4,414.4"/>
		<path id="path2850" class="st1" d="M310.3,386.6v-16.8c-2.6,5.8-4.3,13-4.1,19.4C307.9,389.2,311.7,389.9,310.3,386.6"/>
		<path id="path2852" class="st1" d="M320.1,352.7l-5,6c0.5,11.3-0.7,20.9,0.7,30.5l4.3-0.2V352.7z"/>
		<path id="path2854" class="st1" d="M330,389c0.2-14.9,0.2-30.3,0-45.1c-1.7,0.2-5.3,2.2-5.3,4.8c0.5,14.4-0.5,27.6,0.5,40.6
			L330,389L330,389z"/>
		<path id="path2856" class="st1" d="M339.3,341.2c-1.4-1.4-3.1-2.2-4.8-0.7c-0.5,16.1-0.7,32.9,0.2,48.7h4.3L339.3,341.2
			L339.3,341.2z"/>
		<path id="path2858" class="st1" d="M349.2,348.4c-1.2-1.4-2.9-3.8-4.8-4.1c0.5,13.7-1.2,32.2,0.2,44.9l4.3-0.2L349.2,348.4z"/>
		<path id="path2860" class="st1" d="M358.3,359.9c-0.5-2.6-2.6-4.8-4.3-7l-0.5,1V389c1.4,0.5,3.1,0.2,4.6,0.2L358.3,359.9
			L358.3,359.9z"/>
		<path id="path2862" class="st1" d="M367.9,387.5c-1-6-1.4-12.2-4.1-17.5c-0.2,6.7-1,13,0.2,19.2
			C365.5,389,368.6,390.2,367.9,387.5"/>
		<path id="path2864" class="st1" d="M264,335.2c7.9-3.8,17.5-2.4,24.2,3.1c2.4-1,4.6-2.9,6.7-4.6c-6-7.2-15.1-10.6-25-10.1
			c-7,0.7-13.2,3.6-18.5,9.1c-0.7-9.8,2.9-19.2,8.2-27.1c8.4-10.8,20.6-17,34.6-14.6c5.5,1.9,11,3.8,15.6,8.9
			c7-15.8,14.4-32.2,26.9-46.1c12.5,13.4,20.2,29.3,26.4,45.6c7.2-6,15.4-10.6,25.5-8.9c10.8,1.2,20.6,7.4,26.6,17.3
			c4.6,7.2,6.7,15.4,7.2,24H421c-7.4-7.2-17.5-10.6-28.1-7.7c-5.3,1.7-10.3,4.6-14.6,8.6c1.4,2.4,4.3,3.6,6.7,5.3
			c6.5-5.3,16.1-7.2,23.8-3.6c10.6,5,15.6,15.8,15.6,26.9c10.3-16.3,9.6-41.1-0.5-57.4c-9.1-14.9-24.7-24.2-42.5-23
			c-4.8,0.7-9.4,1.9-13.7,4.1c-4.3-6.2-7.9-13.9-12.2-20.9c-5.3-7.7-11-15.6-18.7-22.3c-13.4,12.2-22.8,27.8-30.5,43.5
			c-14.4-7.4-34.1-4.1-46.1,6.2c-16.1,13.7-20.2,33.6-17.8,54c1.4,5.5,2.9,11.3,6.2,16.1C248.3,350.6,254.4,340.5,264,335.2"/>
		<path id="path2866" class="st2" d="M367.9,413l0.2-19.4c-19.7-0.5-41.5-0.2-62.2-0.2c0,5.8-1,12.5-0.2,19.2
			c13.9,1.7,27.4,10.3,41.8,5C354.5,416.1,361.2,414.4,367.9,413"/>
		<path id="path2868" class="st2" d="M353.5,465.8l-3.4-5.8c1-9.6,2.2-19.2,5.3-27.8c1-1.7,3.4-1.4,4.8-0.5
			c14.9,13,28.8,30.5,49.5,30.7l72.3-0.2c-0.7-2.9-3.1-5.5-5.8-6.7c-10.8-2.4-22.8-2.2-34.3-3.4l1-1l31.5-0.2
			c-6-11.3-21.4-6-31.9-8.9l0.7-0.7l22.3-0.5c-6.7-13-23.8-6.5-35.5-9.8l1-0.5l23.5-0.2c-7.4-13-24.2-6.7-36.3-9.8
			c7.4-1.2,15.6-0.2,23.3-1c-7.9-10.3-22.6-6-33.6-9.1l19.4-1c-7.7-9.4-20.4-7.4-31.5-9.8l14.2-0.5c-7.4-7.2-18-8.6-28.6-9.8
			l10.1-0.5c-5.3-3.8-12.5-6.7-18-11l0.2-1.7l21.1-21.1c-4.1-7-11.5-13.4-18.5-17.3l-11,25.7c7.7,15.1,6.7,33.6,6.7,51.9l-1.7,1.2
			l-32.9,7.2l-35.3-7.4c-0.5-17.8-2.2-37.2,5.8-51.9l-11-26.2c-6.7,4.3-14.6,10.1-18.2,17.5c7,6.7,15.6,14.6,21.4,21.8l-1,1.7
			l-17.5,9.6c3.1,1.2,6.2,0,9.8,0.7c-4.8,1.9-10.8,1.4-15.8,2.6c-4.3,1.9-8.4,4.3-12.5,7c4.8,0.7,8.6-0.2,13.7,1
			c-10.8,1.9-23,0.7-31,9.6c5.8,0.5,13.7,0.7,20.4,1c-11,3.1-25.9-1.4-34.6,8.9l1,0.7l21.4,0.2v0.5c-11.8,3.1-27.4-3.1-35.3,9.4
			l1,0.5c8.2,0.2,15.8-0.5,23.5,0.5l-26.9,2.6c-3.6,1.2-6.2,4.6-8.6,7c7.7,1.7,16.6,0.2,25,1.4c-11.3,2.9-26.9-2.2-34.1,8.9
			l33.6,0.7l-1,0.7l-31.2,2.4c-3.6,0.7-7.7,3.4-9.1,7.2l1,0.5h73.9c20.6-1,32.7-19,48.7-31.4c7.4-0.5,8.9,9.1,11.5,14.4
			c-2.9,1.4-6.7,2.4-7.9,5.8c4.8-0.5,12,1,14.4-4.6c-1-5.5-3.1-10.8-4.8-16.1c7.2-0.7,13.7-1.2,21.1-0.5c-2.2,8.4-3.1,18.2-4.1,26.9
			c-3.6,4.6-10.3,2.6-15.1,1.9l-0.5-0.7c1.2-0.7,2.6-1.9,4.3-1.2c0.5-1.7-1.9-2.6-3.1-3.4c-4.8-1-9.8,1-13.9-1.7
			c0-1.4,0.2-2.6,1-3.6c-2.4-0.7-2.9,2.6-3.8,4.1c-0.5,2.4,0.2,4.1,1.2,6c3.4,2.2,7.2,1.2,11,1c1.7,3.6,4.8,6.5,8.9,7.2
			C341.3,467.7,347.5,465.1,353.5,465.8"/>
		<path id="path2870" class="st2" d="M323,343.8l-7.2-18.5c-2.6-1.2-5.3,1-7.9,1.4l-3.4-4.6c2.4-3.6,8.9,1,10.3-3.8c1-2.4,0-5-1.4-7
			c-0.7,0-1-1.2-1.9-0.7c0,1.2,1,2.6,0.2,3.8l-1.9,1l-25.2-0.2c-2.2-1.2-0.5-3.6-0.2-5.3c-1.9,0-3.8,2.6-4.3,4.6
			c-0.5,2.6,0.5,5.3,2.6,6.2c8.2-1,15.6,0.2,19.4,7.7c-0.2,2.2-3.6,1.4-3.6,4.1l11.3,27.1C314.1,354.9,317,348.4,323,343.8"/>
		<path id="path2872" class="st2" d="M374.9,332.3c-0.2-2.2-2.6-2.4-3.8-3.6c3.1-8.6,12.7-8.4,20.9-8.9c1.7-1.7,1.7-4.8,0.7-7
			l-3.4-3.4c0,1.4,1.7,5.3-1.4,5.8l-25.5-0.2c-2.2-1-0.7-3.4-0.5-4.8c-1.7-0.5-2.6,2.2-3.6,3.4c-0.5,2.4-0.5,6,2.6,6.7
			c2.6,0.5,5.8-0.7,7.9,1c-0.5,1.9-2.4,3.1-3.4,4.8l-7.2-1.7c-3.4,5.8-5.8,12.2-7.9,18.7c4.8,4.8,9.1,10.6,13,16.1L374.9,332.3
			L374.9,332.3z"/>
		<path id="path2874" class="st2" d="M337.2,335.2c3.6,1,6.7,3.4,10.1,5.3l5-13.4c-9.8-2.9-21.1-1.9-31,0.2c0.7,4.3,2.6,9.6,5,13.7
			C329.7,338.6,333.1,336.2,337.2,335.2"/>
		<path id="path2878" class="st0" d="M311.5,411.8l1.1-2.3l2.5-0.4l-1.8-1.8l0.4-2.5l-2.2,1.2l-2.2-1.2l0.4,2.5l-1.8,1.8l2.5,0.4
			L311.5,411.8z"/>
		<path id="path2880" class="st3" d="M311.5,411.8l1.1-2.3l2.5-0.4l-1.8-1.8l0.4-2.5l-2.2,1.2l-2.2-1.2l0.4,2.5l-1.8,1.8l2.5,0.4
			L311.5,411.8z"/>
		<path id="path2882" class="st0" d="M320.4,413.5l1.1-2.2l2.5-0.4l-1.8-1.8l0.4-2.5l-2.2,1.2l-2.2-1.2l0.4,2.5l-1.8,1.8l2.5,0.4
			L320.4,413.5z"/>
		<path id="path2884" class="st3" d="M320.4,413.5l1.1-2.2l2.5-0.4l-1.8-1.8l0.4-2.5l-2.2,1.2l-2.2-1.2l0.4,2.5l-1.8,1.8l2.5,0.4
			L320.4,413.5z"/>
		<path id="path2886" class="st0" d="M328.9,415.1l1.1-2.3l2.5-0.4l-1.8-1.8l0.4-2.5l-2.2,1.2l-2.2-1.2l0.4,2.5l-1.8,1.8l2.5,0.4
			L328.9,415.1L328.9,415.1z"/>
		<path id="path2888" class="st3" d="M328.9,415.1l1.1-2.3l2.5-0.4l-1.8-1.8l0.4-2.5l-2.2,1.2l-2.2-1.2l0.4,2.5l-1.8,1.8l2.5,0.4
			L328.9,415.1L328.9,415.1z"/>
		<path id="path2890" class="st0" d="M336.8,416.6l1.1-2.3l2.5-0.4l-1.8-1.8l0.4-2.5l-2.2,1.2l-2.2-1.2l0.4,2.5l-1.8,1.8l2.5,0.4
			L336.8,416.6z"/>
		<path id="path2892" class="st3" d="M336.8,416.6l1.1-2.3l2.5-0.4l-1.8-1.8l0.4-2.5l-2.2,1.2l-2.2-1.2l0.4,2.5l-1.8,1.8l2.5,0.4
			L336.8,416.6z"/>
		<path id="path2894" class="st0" d="M345.2,415.4l1.1-2.3l2.5-0.4L347,411l0.4-2.5l-2.2,1.2l-2.2-1.2l0.4,2.5l-1.8,1.8l2.5,0.4
			L345.2,415.4z"/>
		<path id="path2896" class="st3" d="M345.2,415.4l1.1-2.3l2.5-0.4L347,411l0.4-2.5l-2.2,1.2l-2.2-1.2l0.4,2.5l-1.8,1.8l2.5,0.4
			L345.2,415.4z"/>
		<path id="path2898" class="st0" d="M354,413l1.1-2.3l2.5-0.4l-1.8-1.8l0.4-2.5l-2.2,1.2l-2.2-1.2l0.4,2.5l-1.8,1.8l2.5,0.4
			L354,413L354,413z"/>
		<path id="path2900" class="st3" d="M354,413l1.1-2.3l2.5-0.4l-1.8-1.8l0.4-2.5l-2.2,1.2l-2.2-1.2l0.4,2.5l-1.8,1.8l2.5,0.4
			L354,413L354,413z"/>
		<path id="path2902" class="st0" d="M362.2,411.1l1.1-2.3l2.5-0.4l-1.8-1.8l0.4-2.5l-2.2,1.2l-2.2-1.2l0.4,2.5l-1.8,1.8l2.5,0.4
			L362.2,411.1z"/>
		<path id="path2904" class="st3" d="M362.2,411.1l1.1-2.3l2.5-0.4l-1.8-1.8l0.4-2.5l-2.2,1.2l-2.2-1.2l0.4,2.5l-1.8,1.8l2.5,0.4
			L362.2,411.1z"/>
		<path id="path2906" class="st0" d="M311.6,402.2l1.1-2.3l2.5-0.4l-1.8-1.8l0.4-2.5l-2.2,1.2l-2.2-1.2l0.4,2.5l-1.8,1.8l2.5,0.4
			L311.6,402.2z"/>
		<path id="path2908" class="st3" d="M311.6,402.2l1.1-2.3l2.5-0.4l-1.8-1.8l0.4-2.5l-2.2,1.2l-2.2-1.2l0.4,2.5l-1.8,1.8l2.5,0.4
			L311.6,402.2z"/>
		<path id="path2910" class="st0" d="M321.5,402.1l1.1-2.2l2.5-0.4l-1.8-1.8l0.4-2.5l-2.2,1.2l-2.2-1.2l0.4,2.5l-1.8,1.8l2.5,0.4
			L321.5,402.1z"/>
		<path id="path2912" class="st3" d="M321.5,402.1l1.1-2.2l2.5-0.4l-1.8-1.8l0.4-2.5l-2.2,1.2l-2.2-1.2l0.4,2.5l-1.8,1.8l2.5,0.4
			L321.5,402.1z"/>
		<path id="path2914" class="st0" d="M331.9,402.3l1.1-2.3l2.5-0.4l-1.8-1.8l0.4-2.5l-2.2,1.2l-2.2-1.2l0.4,2.5l-1.8,1.8l2.5,0.4
			L331.9,402.3z"/>
		<path id="path2916" class="st3" d="M331.9,402.3l1.1-2.3l2.5-0.4l-1.8-1.8l0.4-2.5l-2.2,1.2l-2.2-1.2l0.4,2.5l-1.8,1.8l2.5,0.4
			L331.9,402.3z"/>
		<path id="path2918" class="st0" d="M341.6,402.1l1.1-2.2l2.5-0.4l-1.8-1.8l0.4-2.5l-2.2,1.2l-2.2-1.2l0.4,2.5l-1.8,1.8l2.5,0.4
			L341.6,402.1L341.6,402.1z"/>
		<path id="path2920" class="st3" d="M341.6,402.1l1.1-2.2l2.5-0.4l-1.8-1.8l0.4-2.5l-2.2,1.2l-2.2-1.2l0.4,2.5l-1.8,1.8l2.5,0.4
			L341.6,402.1L341.6,402.1z"/>
		<path id="path2922" class="st0" d="M351.5,401.9l1.1-2.3l2.5-0.4l-1.8-1.8l0.4-2.5l-2.2,1.2l-2.2-1.2l0.4,2.5l-1.8,1.8l2.5,0.4
			L351.5,401.9L351.5,401.9z"/>
		<path id="path2924" class="st3" d="M351.5,401.9l1.1-2.3l2.5-0.4l-1.8-1.8l0.4-2.5l-2.2,1.2l-2.2-1.2l0.4,2.5l-1.8,1.8l2.5,0.4
			L351.5,401.9L351.5,401.9z"/>
		<path id="path2926" class="st0" d="M362,401.7l1.1-2.3l2.5-0.4l-1.8-1.8l0.4-2.5L362,396l-2.2-1.2l0.4,2.5l-1.8,1.8l2.5,0.4
			L362,401.7L362,401.7z"/>
		<path id="path2928" class="st3" d="M362,401.7l1.1-2.3l2.5-0.4l-1.8-1.8l0.4-2.5L362,396l-2.2-1.2l0.4,2.5l-1.8,1.8l2.5,0.4
			L362,401.7L362,401.7z"/>
	</g>
</g>
</svg>
