<?xml version="1.0" encoding="utf-8"?>
<!-- Generator: Adobe Illustrator 22.1.0, SVG Export Plug-In . SVG Version: 6.00 Build 0)  -->
<svg version="1.1" id="Layer_1" xmlns="http://www.w3.org/2000/svg" xmlns:xlink="http://www.w3.org/1999/xlink" x="0px" y="0px"
	 viewBox="0 0 864 864" style="enable-background:new 0 0 864 864;" xml:space="preserve">
<style type="text/css">
	.st0{fill:#213F7E;}
	.st1{fill:#FFFFFF;}
	.st2{fill:#F7D119;}
</style>
<polyline class="st0" points="31,438.3 437.3,844.6 843.7,438.3 437.3,32 31,438.3 "/>
<g>
	<path class="st1" d="M343.5,325.8c-1,3.1-3.1,1-5.1,2.1l-1-6.2C339.4,322.7,343.5,322.7,343.5,325.8"/>
	<path class="st1" d="M353.8,353.5c-13.4,1-13.4-9.3-17.5-17.5C345.6,340.2,338.4,355.6,353.8,353.5"/>
	<polyline class="st1" points="386.8,433.8 386.8,433.8 384.7,426.6 386.8,428.7 386.8,433.8 386.8,428.7 384.7,426.6 386.8,433.8 	
		"/>
	<g>
		<path class="st1" d="M319.7,239c1.4,4.8,3.6,10.2,6.8,16.1v4.8c2.8,5.1,6.3,9.7,10.8,13.5c-8.2-19.6-19.5-44.3-10.3-67.9
			c10.3,7.2,13.4,16.4,18.6,26.8c8.2,2.1,13.4,5.1,14.4,13.4l-4.1,4c10.3,0,13.4,15.5,25.7,6.2l5.2-8.2
			c-13.9-18.9-35.4-39.7-55.5-48.6c-3.9-0.7-7.1-0.2-8.2,2.9c-1,2.6-2.3,5.7-3.4,9.4C318.4,220.3,318.3,229.9,319.7,239z"/>
		<path class="st1" d="M547.4,198.1l-6.4,4.4c-11.8,10.1-5.7,4.6-2.4,1.7l-50.9,35.1c6.2,4.1,8.3,14.4,17.5,14.4l1-11.3
			c6.2,3.2,8-0.1,9.6-3.4c1.7-3.1,3.3-6.2,8.9-3.8c-2.1-2-6.2-0.9-9.3-3c0-2.6,2.5-2.3,5.1-2c1.6,0.1,3.1,0.3,4.3-0.1
			c7.2-10.3,18.5-13.4,23.6-25.7c3.1,22.6-8.3,43.3-18.6,62.8l3.1,2.1c11.8-14.8,19-33.3,21.3-53c0.2-4.2,0.1-8.2-0.3-11.7
			c0,0,5.9-16.3-7.7-6.2C546.6,198.2,547,198.1,547.4,198.1z"/>
		<path class="st1" d="M299.5,306.3c-1.6,3.1-3.3,6.7-4.9,10.6C298.6,314.8,298.8,310.7,299.5,306.3z"/>
		<path class="st1" d="M385.9,454.1c-0.1-0.3-0.1-0.5-0.2-0.8c-0.1,0-0.1,0-0.2,0.1C385.7,453.7,385.8,453.9,385.9,454.1z"/>
		<path class="st1" d="M398.7,479.3c1,1.3,2.1,2.6,3.3,3.9c0,0,0.3,0.2,0.9,0.5C401.4,482.3,400.1,480.9,398.7,479.3z"/>
	</g>
	<path class="st1" d="M459.9,233.1c-3.1,12.4,8.2,21.6,18.5,26.8c18.5,7.2,37.1,16.5,56.6,22.6c0,2.1,1,9.3-4.1,9.3
		c-1-2.1-3.1-3.1-6.2-3.1v14.4h-4.1c1-9.3-6.2-3.1-10.3-6.2c1-2.1,2.1-4.1,1-6.2l7.2,3.1c3.1-4.1,2.1-10.3-2.1-13.4l-11.3,2.1
		c-5.2-11.3-19.6-11.3-30.9-15.4c-3.1-4.1-7.2-6.2-7.2-12.4c-9.3-3.1-17.5-6.2-20.6-18.5l-11.3,3.1l1-7.2
		C444.4,234.1,450.6,233.1,459.9,233.1"/>
	<path class="st1" d="M564.8,323.7l-1,4.1c2.1,1,8.2,0,6.2,6.2l-12.3,2.1l3.1-6.2c-19.6,3.1-8.2-39.1-27.8-16.5l-2.1-1
		c10.3-3.1,4.1-13.4,8.2-18.5C551.5,301.1,562.8,308.3,564.8,323.7"/>
	<path class="st1" d="M566.9,347.4c2.1-2.1,3.1-4.1,3.1-6.1c-3.5-0.7-6.9,0.4-10.3,1.6c-5.4,1.9-10.8,3.7-16.5-2.6
		c-6.6-5.1-12.5-3.4-18.3-1.8c-6,1.7-12,3.4-18.8-2.4c-8.2,6.2-6.2-6.2-14.4-6.2c-4.1-4-9.5-3.6-14.6-3.3c-6.2,0.5-11.9,1-14.2-6.9
		h-3.1c3.1-12.3-11.3-15.5-6.1-27.8c-14.4-7.2,1-16.4-7.3-25.7c0,0,8.3,5.2,9.3,0c-2.1-11.3-16.5-6.1-18.6-18.5l-5.2,7.2
		c-3-2.1,4.1-23.6-10.3-23.6l-9.8,0.6l-5.7,2.6c7.2,17.8-19.8,24-27.8,34.9c8.3,2.1,16.5-7.3,25.8-7.3c2-6.1,11.3-16.4,17.4-23.7
		c-7.2,12.3,16.5,19.6,2.1,30.9c-14.4,2.1-2.1,21.6-11.3,27.8c6.1,8.2-13.4,18.6,5.2,20.5c-11.4-13.4,15.4-15.4,5.1-29.8l9.2-20.6
		c4.1,8.3,9.3,19.6,10.4,27.8c1,9.2,13.4,11.3,4,20.6c8.3,0.9,3.1,18.5,14.4,12.3c4.1,9.2-12.4,17.4-6.1,28.7
		c-6.1-2.7-12.8-1-19.5,0.6c-5.8,1.5-11.8,2.9-17.5,1.5c2-11.3-4.1-17.4-6.2-26.8c-9.2-4-21.6-8.2-31.9-2.1
		c-7.2,6.2-16.4,12.4-22.6,19.6c15.5,0,35-5.2,49.4,4.1c3.1,11.3,11.4,20.5,3.1,31.8c3.1-23.7-28.8-12.3-32.9-30.8
		c-4.2-8.3-9.3,0-14.4,1c-2.1,2-5.2,4-4.2,7.2c11.3,21.6,46.4,11.3,49.4,36l3.1-2.1c4.1,3.1,2.1,8.3,3.1,12.4l-8.3-1
		c0,2,1,5.1-0.9,7.2l2,2.1l3.1-6.2c5.2,6.2,1,13.4,2.1,21.7c-15.5,0-10.3-23.7-19.6-34c-7.2-7.2-19.5-4-24.7-12.3
		c-1,2.1-3.1,1-5.1,1c-2.1,0-2.1-3.1,0-3.1l4-4c-2.1-3.1-6.1-5.2-9.2-2.1v5.1c-19.6-0.9-1-37-26.8-22.6l-11.3-6.1
		c14.4-2.1-2.1-14.4,10.3-17.5c-1-3.1-4.1-6.2-6.1-8.2c-2.1,0.9-3.1,2-5.2,2c0-2,6.1-5.1,1-8.2c4.2-3.1,11.3-22.6,23.7-10.3l3.1-3.1
		c-0.7-3.4-3.7-3.2-6.5-2.9c-1.5,0.1-2.8,0.2-3.7-0.2c0-7.2,9.2-3.1,6.1-12.3c3.1,1,4.1,4.1,8.3,4.1c-6.2-11.3,11.3-9.2,8.2-17.5
		c11.3,6.2,10.3-5.1,18.6-8.2l-1-3.1c-21.7,4.2-41.2,19.6-56.6,31.9c-9.2-3.1,4.2-21.7-10.3-9.3c0.5-2.6,1-5.1,1.7-7.4
		c-0.7,1.5-1.2,3.1-1.7,5v2.4c0-0.4-0.3-3.9-3.1,3.1c0,0,0,0,0,0c7.2,7.3-2.1,20.6-6.2,29.9c-2.1-1-4,1-5.1,3.1
		c2.1,12.3-10.4,35,1,41.2c2-2.1,6.1-5.2,10.3-6.2c-2.1,7.2,9.2,16.5,1,23.7c11.3,5.2,12.3,22.7,26.8,17.5v6.1
		c3,3.2,6.7,1.9,10.1,0.5c4.3-1.7,7.8-3.4,8.4,4.7c7.3,2.1,18.6,3.1,27.8,1c-2.1,13.4,16.5,2.1,9.3,17.5l6.1,2.1
		c-3.1,7.2-8.2,15.4-4.2,23.6c0.3,4.3,1.1,7.8,2.2,10.8c1.4,2.6,3.1,5.5,5.3,8.3c8.4,8,22.6,6.7,36.8,5.3c9.5-0.8,19-1.7,26.8,0.2
		c13.4-5.2,15.5-19.6,17.5-31.9c1-6.1-4.2-10.3-7.3-15.4c-14.3,12.4-5.1,43.2-31.8,43.2c-14.4-1-26.8-9.2-28.8-24.7
		c-1-5.1,5.2-2.1,7.2-4.1c5.2-2,7.3,3.1,9.3,6.2c8.2,0,16.4-1,22.6-4.2c-5.1-6.1-14.4-11.3-24.7-7.2c5.2-20.6-16.5-51.4,9.2-66.9
		c-2.1-5.2-1-13.4-1-17.5h2.1c-2.1,7.3,4.1,12.3,7.3,13.4c5.1,0,2.1-6.1,3-9.2c10.4-1,7.3,11.3,13.4,15.5
		c-4-16.5,4.1-36.1,23.7-38.2c9.1,3,19.1,2.9,28.7,2.9c7.5,0,14.8-0.1,21.7,1.2c-3.1,4.1-8.2,11.3-13.4,7.3c-5.2-2.1-6.2,3-9.2,5.1
		c5.1,6.2-4.1,9.3,0,15.5c-11.4,19.6-42.2,15.5-37.1,43.3c17.5-4.1,47.4-1,59.7-19.6c6.1-3,13.4-4,19.5,0l-0.9-9.2
		c4,3.1,8.2,0,13.4,0c5.1-4.1-4.1-6.2-2.1-10.3l11.5,4.7c0.3-0.4,0.6-0.7,0.9-1.1C576.6,370.8,580.7,355.4,566.9,347.4z
		 M304.4,356.6h-4.1c-3.1-5.2,5.1-9.3,10.3-6.2C308.5,353.5,307.5,356.6,304.4,356.6z M304.4,343.3c1-2.1,4.1-8.2,8.2-6.2
		c2.1,3.1,3.1,6.2,6.2,9.3C314.7,349.4,308.5,346.4,304.4,343.3z"/>
	<path class="st1" d="M504.1,355.6c-9.3,2.1,2,11.3-5.2,15.4c-7.2,18.5-36-3.1-30.9,22.6c-8.2-8.2,0-16.5-2.1-25.7
		C479.4,366.9,491.8,352.5,504.1,355.6"/>
	<polyline class="st1" points="386.8,433.8 384.7,426.6 386.8,428.7 386.8,433.8 	"/>
</g>
<g>
	<path class="st2" d="M329.1,198.1C329.1,198.1,329.1,198.1,329.1,198.1C329.2,198.1,329.1,198.1,329.1,198.1z"/>
	<path class="st2" d="M437.3,68.8L67.9,438.2l369.4,369.4l369.4-369.4L437.3,68.8z M313.4,608.4c-3.2,0-14.5,1-26.4-1
		c0,0-34.7-32.2-45.7-43.8c-10.9-11.6-20.9-19.6-23.5-23.2c-6-8.3-4.5-3.5-5.5-8.7c-1.1-5.7,2.6-4.2,15.4-4.2c9.7,0,21.5,1,21.9,1.3
		c4.5,3.2,26.6,30.1,26.3,31.1l-16.3,0.1c-5.5-4.8-11.7-12.7-14.2-14.8c-2.9-2.6-4.5,0.3-4.5,1.6c0,3.5,43.4,45.5,46.6,45.7
		c6.8,0.3-1.6-5.8-4.8-9.7c0,0,6.7,0.3,13.2,0.3C296,583.3,317.7,608.4,313.4,608.4z M348.1,608.4c-4.5,0-23.1,0-26,0l-63.7-80.7
		h16.1c3.5,1.9,42.8,59.7,44.1,61.7c1.3,1.9,2.1,1.8,2.6,2.9c0.6,1.3,7,2.5,5.5-1.3c-0.6-1.6-39.9-63.3-39.9-63.3h18.8
		C305.4,527.6,349.4,608.4,348.1,608.4z M379.6,608.4c-2.6-0.4-3.3,0-4.3,0c-4.3,0-20.2,0.3-20.2,0.3c-2.5-2.4-43.1-81.1-43.1-81.1
		c1.1,0.1,34.1-1.3,39.9,1.9c4.2,2.3,16.1,34.7,14.5,38c-1.3,2.6-2.6,3.5-2.6,3.5s3.9-0.8,6.1,1.9
		C373.1,576.7,384.7,609.1,379.6,608.4z M375.3,451.2c-2.7-1.7-5.3-3.3-8.1-2.9V441c-1.9,0.5-3.7-0.1-5.7-0.7
		c-2.4-0.6-4.9-1.4-7.7-0.3c1-2.1,3.1-3,2.1-5.1c-2.1-5.2-6.1-1-8.2,0l-2.1,1c-5.2-2.1,1-5.2-1-9.3c-3.8,0.9-7.1-1.7-10.3-4.3
		c-4.6-3.7-9-7.6-14.4-0.8c0-2.1,1-5.2-1-6.2h-2.1c6.2-9.2-7.2-8.2-10.3-13.4h-7.3c1-4.1-3-6.1-1-10.3c-6.1,0-9.2-9.2-12.4-16.5
		c-6.1-4.1,2.1-14.4-8.2-16.5c-2.1-16.4,14.4-22.6,10.3-40.1c16.6-1,7.4-13.9,15.9-22.2c1.3-3.1,3.1-5.8,5.5-8
		c1.8-8.5,4.3-14.8,11.6-21.2c-3.1-19.5-9.3-44.3,0-62.8c2.9-5.7,8.2-6.2,8.2-6.2c14.7-2.1,26.4,7.2,37.8,16.5
		c8.9,7.4,17.6,14.7,27.4,16.4h8.4c4.7-0.8,9.6-3,15-7.2c5.1,2.1,9.2-1,13.4,6.2c14.4-8.3,29.8-1,43.1,0
		c23.8-5.2,45.3-29.9,73.1-31.9l-0.5,0.3c1.9,0,3.7,0.4,5.1,1.6c3.4,2.9,2.1,17.7,2.5,13.6c3.1,16.5-9.2,33-3,44.3v18.5
		c-0.8,0.4-1.8,0.4-2.7,0.3c-1.5,0-2.9-0.1-3.5,1.8c4.1,4.1,6.2,8.3,13.4,12.3c-5.2,9.3,16.5,9.3,9.2,20.6
		c7.3,8.2,5.2,16.5,12.3,26.8l-6.1,9.2c19.5-1-2.1,19.6,14.4,23.7c-8.3,1,1,11.4-9.2,10.4c-7.2,7.2-2.1,26.8-20.6,21.6
		c-1,2.1-2.1,3.1-1,6.2c-3.6-3-6.2-1.5-9,0.2c-1.9,1.1-3.9,2.2-6.4,1.8c1,4.1,3.1,8.3,3.1,12.4c-4.2-3.1-12.4-5.2-12.4,0.9
		c-11.3,9.3-30.9,7.3-30.9,21.7c-2.1-5.2-8.2-4.1-11.3-3.1c-15.5,11.3-10.3,37-28.8,43.3c-5.5,11-15.7,10.6-27.1,10.3
		c-3.6-0.1-7.4-0.2-11,0c-7.2-2.7-13.7-6.6-19.3-11.5c-2.9-1.8-5.4-4.4-7.2-7.4c-0.3-0.3-0.6-0.7-0.9-1c-4.3-3.5-7.4-8.8-8.2-14.9
		c-1-2.7-1.9-5.5-2.5-8.4C381.7,455.1,378.4,453.2,375.3,451.2z M448.8,547.9c-3.6,5.8-1.6,34.7-1.9,37.3c-0.3,2.6,0.8,7.4,3.5,7.4
		c4.2,0,2.5-7.4,3.4-7.4c1,0,10,0,11.6,0c1.6,0-2.6,23.2-5.6,23.2h-22.3c-1.8-0.3-2-6-2-7.6s-3.3-69.9-3-71.2
		c0.3-1.3,2.1-1.9,3.7-1.9c4.2,0,18.4,0,34.1,0c2.8,0,4.2,1.6,3.9,4.5c-0.3,2.9-4.5,24.2-6.6,24.4c-2.9,0.3-7.5,0.4-10.6-0.3
		c-1.6-0.3-0.2-9.1-0.2-10C456.8,543.4,453,541.2,448.8,547.9z M423.4,527.6c1,0,1.9,10.6,1.9,16.4c0,1.6-15.5-0.7-20.9,1
		c-4.2,1.3,1.1,13.8,4.2,13.8c2.6,0,14.9-0.7,16.4,1.6c1.9,2.9,4.7,43.8,4.1,45c-0.6,1.3-1.9,3.2-4.1,3.5c-2.4,0.3-19.3,0-21.6,0
		s-4.2-15.8-4.2-15.8c1.6-0.3,8.6,1.1,11.6,0c4.5-1.6,3.9-11.9,2.9-13.8c-1.6-3.2-10.5-3.6-13.2-2.9c-2.6,0.6-3.9,0-5.5-3.2
		c-1.6-3.2-10.9-45-10.9-45C388.3,527,416.1,527.6,423.4,527.6z M481.6,701.9c-2.2,2.3-5.5,6-9.4,8.1c0,0-2.2-12.6-8.3-12.6
		c0,0-12.1-0.6-12.1,19.2c0,0,3.3,0.4,3.2,2c0,1.5-0.2,2.4-3.2,2.7c0,0-0.7,2.5,2.5,3.7c3.3,1.2,7.7-1.8,8.7-3.3
		c0,0,5.9,6.8,1.7,11.6c-4.3,4.9-6.1,3.4-7.6,3.4c-4.6,0-6.3-3.8-8.5-7.7c0,0-3.3,16.2-10.4,19.8c0.1,0,0.1,0.1,0.2,0.1h-0.4
		c0.1,0,0.1-0.1,0.2-0.1c-7.1-3.6-10.4-19.8-10.4-19.8c-2.2,3.9-3.9,7.7-8.5,7.7c-1.5,0-3.3,1.5-7.6-3.4c-4.2-4.8,1.7-11.6,1.7-11.6
		c1,1.5,5.5,4.5,8.7,3.3c3.3-1.2,2.5-3.7,2.5-3.7c-3-0.3-3.2-1.1-3.2-2.7c0-1.5,3.2-2,3.2-2c0-19.8-12.1-19.2-12.1-19.2
		c-6,0-8.3,12.6-8.3,12.6c-3.9-2.1-7.2-5.8-9.4-8.1c-3-4.9-3.6-8.5-3.6-11c0-2.4,2.2-6.8,2.2-6.8c14.6-15.5,29.2,0.3,29.2,0.3
		c-2.7-9.2,7.8-29.9,7.8-29.9c4.2-6.3,7.8-13.1,7.8-13.1s3.6,6.8,7.8,13.1c0,0,10.5,20.6,7.8,29.9c0,0,14.5-15.7,29.2-0.3
		c0,0,2.2,4.4,2.1,6.8C485.2,693.4,484.5,697,481.6,701.9z M489.4,608.4c-1.9,0-15.4,0.3-17.6,0c-2.3-0.3-3.1,0-4.4-1.3
		c-1.4-1.4,13.5-74.6,14.8-74.6c1.3,0,2.2-5,6.3-4.8c2.3,0.1,26.6-1,29.2,0c2.6,1,5,3.9,3.8,7.1c-1.3,3.2-23.5,66.6-25.1,69.2
		C494.8,606.5,491.4,608.4,489.4,608.4z M527.6,604.8c-1.6,1-1,4.2-4.2,4.2c-3.2,0-17.7-0.3-19,0c-1.3,0.3-3.6-1.8-2-3.1
		c1.6-1.3,31.3-75,31.3-75l1-3.2h16.7c0,0-26.9,54.8-30.1,58.6c5.1-6-5.9,7.3,0.3,8.2c6,0.9,38.8-66.7,40.4-66.7
		c1.6,0,14.2,0,15.4,0C579.1,527.6,529.2,603.9,527.6,604.8z M551.1,608.4c-1.3-0.3-11.3,0-11.3,0l41.2-64.3h-6.8l10-16.4
		c2.9,0,36.4,0,37.3,0L608,544.1h-10C598,544.1,552.4,608.7,551.1,608.4z M618.3,563.4h19.3c5.8,1.6-42.5,44.1-44.4,45
		c-0.1,0.1-0.2,0.1-0.3,0.1c0.2,0.2-1,0.5,0,0c-0.1-0.1-0.4-0.1-1-0.1c-2.6,0-28,0-28.9,0c-1,0,12.5-14,15.1-16.1
		c1.3-1,5.8,0,12.2,0.6c3.2,0.3,16.2-12.5,17.7-14.1c3.2-3.5,0.3-3.9-2.9-4.2c-3.2-0.3-9.8-0.3-10-1.6c-0.6-6.1,29.6-39.2,32.2-41.5
		c1.4-1.2,1.6-4.2,7.7-3.9c2.3,0.1,38.6,0,38.6,0l-15.8,16.4c-15.1,0-15.8,0-25.4,0.3C632.5,544.4,616.4,561.4,618.3,563.4z"/>
	<path class="st2" d="M329.5,198.2c0,0-0.1,0-0.2-0.1C329.4,198.2,329.4,198.2,329.5,198.2z"/>
	<path class="st2" d="M390.4,447c-0.3,0.8-0.5,1.7-0.7,2.5c0.3-0.8,0.7-1.6,1.1-2.4C390.7,447.1,390.5,447,390.4,447z"/>
	<path class="st2" d="M456.4,483.2c0,0.1-0.1,0.1-0.1,0.2c0.9,0.1,1.7,0.2,2.6,0.3L456.4,483.2z"/>
	<path class="st2" d="M396.9,477.1C396.9,477,396.9,477,396.9,477.1c0,0,0,0.1,0.1,0.1C396.9,477.1,396.9,477.1,396.9,477.1z"/>
	<path class="st2" d="M354.5,582.5c2.1,4.8,3.5,7.6,5.1,10.1c1.1,1.7,4.2,0.2,4.1-1.4c0-1.6-1.7-5.6-3.1-8.3
		c-1.4-2.5-1.3-2.5-4.9-3.1C352.9,579.5,354.5,582.5,354.5,582.5"/>
	<path class="st2" d="M337.1,547.8c2.1,4.8,6.2,13,8.3,15.6c1.3,1.6,5.7,0.5,5.7-0.8c0-1.6-5.5-13.3-7.2-15.8
		c-2.3-3.2-2.3-2.3-5.8-2.3C334.2,544.6,337.1,547.8,337.1,547.8"/>
	<path class="st2" d="M493,545c8.2-5.1,7.1,8.2,7.6,3.9c-1,8.4-12.5,45.5-15.4,45.5c-5.5,0-3.5-1.1-3-9.1c0.4-6,8.7-35.5,8.7-35.5
		L493,545"/>
</g>
</svg>
